<svg id="SvgjsSvg1001" width="288" height="288" xmlns="http://www.w3.org/2000/svg" version="1.1" xmlns:xlink="http://www.w3.org/1999/xlink" xmlns:svgjs="http://svgjs.com/svgjs"><defs id="SvgjsDefs1002"></defs><g id="SvgjsG1008" transform="matrix(0.9167,0,0,0.9167,11.995193766226976,11.995184469270725)"><svg xmlns="http://www.w3.org/2000/svg" width="288" height="288" enable-background="new 0 0 611.998 611.999" viewBox="0 0 611.998 611.999"><path d="M316.143,215.625l56.521,56.532L259.037,385.784l-56.52-56.532L316.143,215.625z M611.998,252.986
		c0,21.123-17.12,38.24-38.24,38.24c-0.062,0-0.165,0-0.255,0h-25.724v268.093c0,21.122-17.12,38.239-38.24,38.239H102.21
		c-21.122,0-38.24-17.119-38.24-38.239V291.226H38.248c-16.469,0-31.09-10.543-36.29-26.169c-5.2-15.628,0.192-32.824,13.372-42.689
		l48.629-36.392V84.664c0-21.122,17.12-38.24,38.24-38.24h35.347c21.123,0,38.24,17.12,38.24,38.24v17.603L282.95,22.064
		c13.601-10.171,32.25-10.159,45.839,0l264.981,198.341C604.731,227.135,611.998,239.206,611.998,252.986z M233.682,481.78
		c0-25.787-46.691-104.664-46.691-104.664s-46.679,78.879-46.679,104.664c0,25.773,20.906,46.68,46.679,46.68
		C212.778,528.459,233.682,507.553,233.682,481.78z M485.371,423.616l-62.894-62.881l0.013-0.013
		c24.717-24.717,24.717-64.933-0.013-89.662l-93.613-93.626c-7.048-7.036-18.445-7.036-25.467,0L164.29,316.528
		c-7.036,7.036-7.024,18.432,0,25.455l93.638,93.638c24.717,24.717,64.958,24.717,89.663,0l62.893,62.869
		c20.637,20.651,54.226,20.651,74.889,0C506.008,477.841,506.008,444.252,485.371,423.616z" fill="#ffe277" class="color000 svgShape"></path></svg></g></svg>