<svg id="SvgjsSvg1023" width="288" height="288" xmlns="http://www.w3.org/2000/svg" version="1.1" xmlns:xlink="http://www.w3.org/1999/xlink" xmlns:svgjs="http://svgjs.com/svgjs"><defs id="SvgjsDefs1024"></defs><g id="SvgjsG1025"><svg xmlns="http://www.w3.org/2000/svg" enable-background="new 0 0 297 297" viewBox="0 0 297 297" width="288" height="288"><path d="M287.631,108.213h-38.118c-4.176-17.458-19.738-30.542-38.371-30.91c-6.835-8.72-17.023-14.3-28.107-15.303
	c-9.294-18.832-28.621-31.082-49.994-31.082S92.341,43.167,83.047,62c-11.085,1.004-21.273,6.583-28.107,15.303
	c-18.633,0.368-34.195,13.452-38.371,30.91h-7.2c-3.375,0-6.49,1.815-8.153,4.752c-1.662,2.938-1.618,6.542,0.119,9.437
	l50.558,84.28c-3.188,5.743-5.011,12.344-5.011,19.366c0,22.075,17.96,40.035,40.035,40.035s40.035-17.96,40.035-40.035
	c0-2.816-0.296-5.564-0.852-8.218h31.416l47.443,39.436c1.683,1.322,3.728,2.002,5.789,2.002c1.393,0,2.794-0.31,4.094-0.942
	c3.226-1.568,5.274-4.84,5.274-8.427v-40.064l24.861-82.883h42.655c5.174,0,9.369-4.195,9.369-9.369
	S292.805,108.213,287.631,108.213z M55.746,96.033c0.896,0,1.811,0.061,2.798,0.188c3.781,0.488,7.475-1.364,9.351-4.68
	c3.826-6.765,11.018-10.968,18.769-10.968c0.545,0,1.143,0.027,1.825,0.085c4.253,0.358,8.214-2.207,9.625-6.237
	c5.193-14.813,19.229-24.766,34.926-24.766s29.733,9.953,34.926,24.766c1.412,4.029,5.361,6.592,9.625,6.237
	c0.683-0.058,1.28-0.085,1.825-0.085c7.751,0,14.943,4.202,18.769,10.968c1.876,3.316,5.567,5.168,9.351,4.68
	c0.987-0.127,1.902-0.188,2.798-0.188c8.527,0,15.911,4.978,19.403,12.18H36.343C39.835,101.011,47.219,96.033,55.746,96.033z
	 M86.917,247.344c-11.742,0-21.296-9.554-21.296-21.296c0-11.742,9.554-21.296,21.296-21.296s21.296,9.554,21.296,21.296
	C108.213,237.79,98.659,247.344,86.917,247.344z M185.095,217.829h16.282v12.793L185.095,217.829z M203.775,199.091h-87.286
	c-7.327-8.031-17.871-13.078-29.572-13.078c-8.001,0-15.455,2.368-21.716,6.428l-39.286-65.49h199.498L203.775,199.091z" fill="#ffb367" class="color000 svgShape"></path></svg></g></svg>